<mxfile host="app.diagrams.net" modified="2023-05-31T07:55:57.649Z" agent="Mozilla/5.0 (Windows NT 10.0; Win64; x64) AppleWebKit/537.36 (KHTML, like Gecko) Chrome/114.0.0.0 Safari/537.36" etag="4tPqqTACEnnMLkXPDX8d" version="21.3.6" type="device" pages="2">
  <diagram name="Halaman-1" id="MkGNZRPQIuTOGd2My2k0">
    <mxGraphModel dx="2261" dy="759" grid="1" gridSize="10" guides="1" tooltips="1" connect="1" arrows="1" fold="1" page="1" pageScale="1" pageWidth="827" pageHeight="1169" math="0" shadow="0">
      <root>
        <mxCell id="0" />
        <mxCell id="1" parent="0" />
        <mxCell id="VKmf45bNIdNvS3ac2Pd--6" value="" style="edgeStyle=orthogonalEdgeStyle;rounded=0;orthogonalLoop=1;jettySize=auto;html=1;" parent="1" source="VKmf45bNIdNvS3ac2Pd--1" target="VKmf45bNIdNvS3ac2Pd--4" edge="1">
          <mxGeometry relative="1" as="geometry" />
        </mxCell>
        <mxCell id="VKmf45bNIdNvS3ac2Pd--1" value="Mulai" style="rounded=1;whiteSpace=wrap;html=1;arcSize=50;" parent="1" vertex="1">
          <mxGeometry x="354" y="30" width="120" height="50" as="geometry" />
        </mxCell>
        <mxCell id="VKmf45bNIdNvS3ac2Pd--8" value="" style="edgeStyle=orthogonalEdgeStyle;rounded=0;orthogonalLoop=1;jettySize=auto;html=1;" parent="1" source="VKmf45bNIdNvS3ac2Pd--4" target="VKmf45bNIdNvS3ac2Pd--7" edge="1">
          <mxGeometry relative="1" as="geometry" />
        </mxCell>
        <mxCell id="VKmf45bNIdNvS3ac2Pd--4" value="Login&amp;nbsp;" style="shape=parallelogram;perimeter=parallelogramPerimeter;whiteSpace=wrap;html=1;fixedSize=1;" parent="1" vertex="1">
          <mxGeometry x="344" y="120" width="140" height="50" as="geometry" />
        </mxCell>
        <mxCell id="VKmf45bNIdNvS3ac2Pd--10" value="" style="edgeStyle=orthogonalEdgeStyle;rounded=0;orthogonalLoop=1;jettySize=auto;html=1;" parent="1" source="VKmf45bNIdNvS3ac2Pd--7" target="VKmf45bNIdNvS3ac2Pd--9" edge="1">
          <mxGeometry relative="1" as="geometry" />
        </mxCell>
        <mxCell id="VKmf45bNIdNvS3ac2Pd--7" value="Tampilan Halaman Utama" style="shape=parallelogram;perimeter=parallelogramPerimeter;whiteSpace=wrap;html=1;fixedSize=1;" parent="1" vertex="1">
          <mxGeometry x="344" y="210" width="140" height="50" as="geometry" />
        </mxCell>
        <mxCell id="VKmf45bNIdNvS3ac2Pd--12" value="" style="edgeStyle=orthogonalEdgeStyle;rounded=0;orthogonalLoop=1;jettySize=auto;html=1;" parent="1" source="VKmf45bNIdNvS3ac2Pd--9" target="VKmf45bNIdNvS3ac2Pd--11" edge="1">
          <mxGeometry relative="1" as="geometry" />
        </mxCell>
        <mxCell id="VKmf45bNIdNvS3ac2Pd--9" value="Input FIle" style="shape=parallelogram;perimeter=parallelogramPerimeter;whiteSpace=wrap;html=1;fixedSize=1;" parent="1" vertex="1">
          <mxGeometry x="344" y="300" width="140" height="50" as="geometry" />
        </mxCell>
        <mxCell id="VKmf45bNIdNvS3ac2Pd--14" value="" style="edgeStyle=orthogonalEdgeStyle;rounded=0;orthogonalLoop=1;jettySize=auto;html=1;" parent="1" source="VKmf45bNIdNvS3ac2Pd--11" target="VKmf45bNIdNvS3ac2Pd--13" edge="1">
          <mxGeometry relative="1" as="geometry" />
        </mxCell>
        <mxCell id="VKmf45bNIdNvS3ac2Pd--11" value="Input Key" style="shape=parallelogram;perimeter=parallelogramPerimeter;whiteSpace=wrap;html=1;fixedSize=1;" parent="1" vertex="1">
          <mxGeometry x="344" y="390" width="140" height="50" as="geometry" />
        </mxCell>
        <mxCell id="VKmf45bNIdNvS3ac2Pd--19" value="" style="edgeStyle=orthogonalEdgeStyle;rounded=0;orthogonalLoop=1;jettySize=auto;html=1;" parent="1" source="VKmf45bNIdNvS3ac2Pd--13" target="VKmf45bNIdNvS3ac2Pd--18" edge="1">
          <mxGeometry relative="1" as="geometry" />
        </mxCell>
        <mxCell id="VKmf45bNIdNvS3ac2Pd--13" value="Input Key" style="shape=parallelogram;perimeter=parallelogramPerimeter;whiteSpace=wrap;html=1;fixedSize=1;" parent="1" vertex="1">
          <mxGeometry x="344" y="480" width="140" height="50" as="geometry" />
        </mxCell>
        <mxCell id="VKmf45bNIdNvS3ac2Pd--25" value="" style="edgeStyle=orthogonalEdgeStyle;rounded=0;orthogonalLoop=1;jettySize=auto;html=1;" parent="1" source="VKmf45bNIdNvS3ac2Pd--18" target="VKmf45bNIdNvS3ac2Pd--24" edge="1">
          <mxGeometry relative="1" as="geometry" />
        </mxCell>
        <mxCell id="VKmf45bNIdNvS3ac2Pd--32" value="" style="edgeStyle=orthogonalEdgeStyle;rounded=0;orthogonalLoop=1;jettySize=auto;html=1;" parent="1" source="VKmf45bNIdNvS3ac2Pd--18" target="VKmf45bNIdNvS3ac2Pd--31" edge="1">
          <mxGeometry relative="1" as="geometry" />
        </mxCell>
        <mxCell id="VKmf45bNIdNvS3ac2Pd--18" value="Panjang(Key)&lt;br&gt;&amp;lt; 32 Char" style="rhombus;whiteSpace=wrap;html=1;" parent="1" vertex="1">
          <mxGeometry x="354" y="570" width="120" height="115" as="geometry" />
        </mxCell>
        <mxCell id="VKmf45bNIdNvS3ac2Pd--27" value="" style="edgeStyle=orthogonalEdgeStyle;rounded=0;orthogonalLoop=1;jettySize=auto;html=1;" parent="1" source="VKmf45bNIdNvS3ac2Pd--24" target="VKmf45bNIdNvS3ac2Pd--26" edge="1">
          <mxGeometry relative="1" as="geometry" />
        </mxCell>
        <mxCell id="VKmf45bNIdNvS3ac2Pd--24" value="Tampilkan Pesan Panjang Key Kurang Dari 32 Char/32byte" style="shape=parallelogram;perimeter=parallelogramPerimeter;whiteSpace=wrap;html=1;fixedSize=1;" parent="1" vertex="1">
          <mxGeometry x="530" y="593.13" width="200" height="68.75" as="geometry" />
        </mxCell>
        <mxCell id="VKmf45bNIdNvS3ac2Pd--29" style="edgeStyle=orthogonalEdgeStyle;rounded=0;orthogonalLoop=1;jettySize=auto;html=1;entryX=1;entryY=0.5;entryDx=0;entryDy=0;" parent="1" source="VKmf45bNIdNvS3ac2Pd--26" target="VKmf45bNIdNvS3ac2Pd--11" edge="1">
          <mxGeometry relative="1" as="geometry" />
        </mxCell>
        <mxCell id="VKmf45bNIdNvS3ac2Pd--26" value="" style="shape=waypoint;sketch=0;size=6;pointerEvents=1;points=[];fillColor=default;resizable=0;rotatable=0;perimeter=centerPerimeter;snapToPoint=1;" parent="1" vertex="1">
          <mxGeometry x="620" y="405.005" width="20" height="20" as="geometry" />
        </mxCell>
        <mxCell id="VKmf45bNIdNvS3ac2Pd--30" value="&lt;b&gt;False&lt;/b&gt;" style="text;html=1;align=center;verticalAlign=middle;resizable=0;points=[];autosize=1;strokeColor=none;fillColor=none;" parent="1" vertex="1">
          <mxGeometry x="477" y="604" width="50" height="30" as="geometry" />
        </mxCell>
        <mxCell id="VKmf45bNIdNvS3ac2Pd--39" value="" style="edgeStyle=orthogonalEdgeStyle;rounded=0;orthogonalLoop=1;jettySize=auto;html=1;" parent="1" source="VKmf45bNIdNvS3ac2Pd--31" target="VKmf45bNIdNvS3ac2Pd--38" edge="1">
          <mxGeometry relative="1" as="geometry" />
        </mxCell>
        <mxCell id="VKmf45bNIdNvS3ac2Pd--41" value="" style="edgeStyle=orthogonalEdgeStyle;rounded=0;orthogonalLoop=1;jettySize=auto;html=1;" parent="1" source="VKmf45bNIdNvS3ac2Pd--31" target="VKmf45bNIdNvS3ac2Pd--40" edge="1">
          <mxGeometry relative="1" as="geometry" />
        </mxCell>
        <mxCell id="VKmf45bNIdNvS3ac2Pd--31" value="Input Pilih" style="shape=parallelogram;perimeter=parallelogramPerimeter;whiteSpace=wrap;html=1;fixedSize=1;" parent="1" vertex="1">
          <mxGeometry x="347" y="730" width="134" height="50" as="geometry" />
        </mxCell>
        <mxCell id="VKmf45bNIdNvS3ac2Pd--44" value="" style="edgeStyle=orthogonalEdgeStyle;rounded=0;orthogonalLoop=1;jettySize=auto;html=1;" parent="1" source="VKmf45bNIdNvS3ac2Pd--38" target="VKmf45bNIdNvS3ac2Pd--43" edge="1">
          <mxGeometry relative="1" as="geometry" />
        </mxCell>
        <mxCell id="VKmf45bNIdNvS3ac2Pd--62" value="" style="edgeStyle=orthogonalEdgeStyle;rounded=0;orthogonalLoop=1;jettySize=auto;html=1;" parent="1" source="VKmf45bNIdNvS3ac2Pd--38" target="VKmf45bNIdNvS3ac2Pd--61" edge="1">
          <mxGeometry relative="1" as="geometry" />
        </mxCell>
        <mxCell id="VKmf45bNIdNvS3ac2Pd--38" value="Pilih ==&lt;br&gt;Enkripsi" style="rhombus;whiteSpace=wrap;html=1;" parent="1" vertex="1">
          <mxGeometry x="130" y="712.5" width="110" height="85" as="geometry" />
        </mxCell>
        <mxCell id="VKmf45bNIdNvS3ac2Pd--46" value="" style="edgeStyle=orthogonalEdgeStyle;rounded=0;orthogonalLoop=1;jettySize=auto;html=1;" parent="1" source="VKmf45bNIdNvS3ac2Pd--40" target="VKmf45bNIdNvS3ac2Pd--45" edge="1">
          <mxGeometry relative="1" as="geometry" />
        </mxCell>
        <mxCell id="VKmf45bNIdNvS3ac2Pd--64" value="" style="edgeStyle=orthogonalEdgeStyle;rounded=0;orthogonalLoop=1;jettySize=auto;html=1;" parent="1" source="VKmf45bNIdNvS3ac2Pd--40" target="VKmf45bNIdNvS3ac2Pd--63" edge="1">
          <mxGeometry relative="1" as="geometry" />
        </mxCell>
        <mxCell id="VKmf45bNIdNvS3ac2Pd--40" value="Pilih ==&lt;br&gt;Dekripsi" style="rhombus;whiteSpace=wrap;html=1;" parent="1" vertex="1">
          <mxGeometry x="588" y="715" width="80" height="80" as="geometry" />
        </mxCell>
        <mxCell id="VKmf45bNIdNvS3ac2Pd--42" value="True" style="text;html=1;align=center;verticalAlign=middle;resizable=0;points=[];autosize=1;strokeColor=none;fillColor=none;" parent="1" vertex="1">
          <mxGeometry x="405" y="688" width="50" height="30" as="geometry" />
        </mxCell>
        <mxCell id="VKmf45bNIdNvS3ac2Pd--50" value="" style="edgeStyle=orthogonalEdgeStyle;rounded=0;orthogonalLoop=1;jettySize=auto;html=1;entryX=0.8;entryY=0.413;entryDx=0;entryDy=0;entryPerimeter=0;" parent="1" source="VKmf45bNIdNvS3ac2Pd--43" target="VKmf45bNIdNvS3ac2Pd--49" edge="1">
          <mxGeometry relative="1" as="geometry" />
        </mxCell>
        <mxCell id="VKmf45bNIdNvS3ac2Pd--43" value="Proses Enkripsi" style="shape=process;whiteSpace=wrap;html=1;backgroundOutline=1;" parent="1" vertex="1">
          <mxGeometry x="125" y="890" width="120" height="60" as="geometry" />
        </mxCell>
        <mxCell id="VKmf45bNIdNvS3ac2Pd--52" value="" style="edgeStyle=orthogonalEdgeStyle;rounded=0;orthogonalLoop=1;jettySize=auto;html=1;" parent="1" source="VKmf45bNIdNvS3ac2Pd--45" target="VKmf45bNIdNvS3ac2Pd--51" edge="1">
          <mxGeometry relative="1" as="geometry" />
        </mxCell>
        <mxCell id="VKmf45bNIdNvS3ac2Pd--45" value="Proses Dekripsi" style="shape=process;whiteSpace=wrap;html=1;backgroundOutline=1;" parent="1" vertex="1">
          <mxGeometry x="568" y="890" width="120" height="60" as="geometry" />
        </mxCell>
        <mxCell id="VKmf45bNIdNvS3ac2Pd--49" value="" style="shape=waypoint;sketch=0;size=6;pointerEvents=1;points=[];fillColor=default;resizable=0;rotatable=0;perimeter=centerPerimeter;snapToPoint=1;" parent="1" vertex="1">
          <mxGeometry x="404" y="910" width="20" height="20" as="geometry" />
        </mxCell>
        <mxCell id="VKmf45bNIdNvS3ac2Pd--54" value="" style="edgeStyle=orthogonalEdgeStyle;rounded=0;orthogonalLoop=1;jettySize=auto;html=1;" parent="1" source="VKmf45bNIdNvS3ac2Pd--51" edge="1">
          <mxGeometry relative="1" as="geometry">
            <mxPoint x="415" y="980" as="targetPoint" />
          </mxGeometry>
        </mxCell>
        <mxCell id="VKmf45bNIdNvS3ac2Pd--51" value="" style="shape=waypoint;sketch=0;size=6;pointerEvents=1;points=[];fillColor=default;resizable=0;rotatable=0;perimeter=centerPerimeter;snapToPoint=1;" parent="1" vertex="1">
          <mxGeometry x="405" y="910" width="20" height="20" as="geometry" />
        </mxCell>
        <mxCell id="VKmf45bNIdNvS3ac2Pd--56" value="" style="edgeStyle=orthogonalEdgeStyle;rounded=0;orthogonalLoop=1;jettySize=auto;html=1;" parent="1" source="VKmf45bNIdNvS3ac2Pd--53" target="VKmf45bNIdNvS3ac2Pd--55" edge="1">
          <mxGeometry relative="1" as="geometry" />
        </mxCell>
        <mxCell id="VKmf45bNIdNvS3ac2Pd--53" value="" style="shape=waypoint;sketch=0;size=6;pointerEvents=1;points=[];fillColor=default;resizable=0;rotatable=0;perimeter=centerPerimeter;snapToPoint=1;" parent="1" vertex="1">
          <mxGeometry x="405" y="970" width="20" height="20" as="geometry" />
        </mxCell>
        <mxCell id="VKmf45bNIdNvS3ac2Pd--58" value="" style="edgeStyle=orthogonalEdgeStyle;rounded=0;orthogonalLoop=1;jettySize=auto;html=1;" parent="1" source="VKmf45bNIdNvS3ac2Pd--55" target="VKmf45bNIdNvS3ac2Pd--57" edge="1">
          <mxGeometry relative="1" as="geometry" />
        </mxCell>
        <mxCell id="VKmf45bNIdNvS3ac2Pd--55" value="Tampilkan Hasil&amp;nbsp;" style="shape=parallelogram;perimeter=parallelogramPerimeter;whiteSpace=wrap;html=1;fixedSize=1;sketch=0;" parent="1" vertex="1">
          <mxGeometry x="354" y="1020" width="120" height="60" as="geometry" />
        </mxCell>
        <mxCell id="VKmf45bNIdNvS3ac2Pd--57" value="Selesai" style="rounded=1;whiteSpace=wrap;html=1;sketch=0;arcSize=50;" parent="1" vertex="1">
          <mxGeometry x="568" y="1025" width="110" height="50" as="geometry" />
        </mxCell>
        <mxCell id="VKmf45bNIdNvS3ac2Pd--59" value="True" style="text;html=1;align=center;verticalAlign=middle;resizable=0;points=[];autosize=1;strokeColor=none;fillColor=none;" parent="1" vertex="1">
          <mxGeometry x="177" y="824" width="50" height="30" as="geometry" />
        </mxCell>
        <mxCell id="VKmf45bNIdNvS3ac2Pd--60" value="True" style="text;html=1;align=center;verticalAlign=middle;resizable=0;points=[];autosize=1;strokeColor=none;fillColor=none;" parent="1" vertex="1">
          <mxGeometry x="585" y="826" width="50" height="30" as="geometry" />
        </mxCell>
        <mxCell id="VKmf45bNIdNvS3ac2Pd--69" value="" style="edgeStyle=orthogonalEdgeStyle;rounded=0;orthogonalLoop=1;jettySize=auto;html=1;" parent="1" source="VKmf45bNIdNvS3ac2Pd--61" target="VKmf45bNIdNvS3ac2Pd--68" edge="1">
          <mxGeometry relative="1" as="geometry" />
        </mxCell>
        <mxCell id="VKmf45bNIdNvS3ac2Pd--61" value="Tampilkan Pesan FIle Belum Di Enkripsi" style="shape=parallelogram;perimeter=parallelogramPerimeter;whiteSpace=wrap;html=1;fixedSize=1;" parent="1" vertex="1">
          <mxGeometry x="-100" y="722.5" width="145" height="65" as="geometry" />
        </mxCell>
        <mxCell id="VKmf45bNIdNvS3ac2Pd--66" value="" style="edgeStyle=orthogonalEdgeStyle;rounded=0;orthogonalLoop=1;jettySize=auto;html=1;" parent="1" source="VKmf45bNIdNvS3ac2Pd--63" target="VKmf45bNIdNvS3ac2Pd--65" edge="1">
          <mxGeometry relative="1" as="geometry" />
        </mxCell>
        <mxCell id="VKmf45bNIdNvS3ac2Pd--63" value="Tampilkan Pesan Belum &lt;br&gt;Di Dekripsi" style="shape=parallelogram;perimeter=parallelogramPerimeter;whiteSpace=wrap;html=1;fixedSize=1;" parent="1" vertex="1">
          <mxGeometry x="760" y="725" width="160" height="60" as="geometry" />
        </mxCell>
        <mxCell id="VKmf45bNIdNvS3ac2Pd--67" style="edgeStyle=orthogonalEdgeStyle;rounded=0;orthogonalLoop=1;jettySize=auto;html=1;entryX=1;entryY=0.5;entryDx=0;entryDy=0;" parent="1" source="VKmf45bNIdNvS3ac2Pd--65" target="VKmf45bNIdNvS3ac2Pd--7" edge="1">
          <mxGeometry relative="1" as="geometry" />
        </mxCell>
        <mxCell id="VKmf45bNIdNvS3ac2Pd--65" value="" style="shape=waypoint;sketch=0;size=6;pointerEvents=1;points=[];fillColor=default;resizable=0;rotatable=0;perimeter=centerPerimeter;snapToPoint=1;" parent="1" vertex="1">
          <mxGeometry x="830" y="225" width="20" height="20" as="geometry" />
        </mxCell>
        <mxCell id="VKmf45bNIdNvS3ac2Pd--70" style="edgeStyle=orthogonalEdgeStyle;rounded=0;orthogonalLoop=1;jettySize=auto;html=1;entryX=0;entryY=0.5;entryDx=0;entryDy=0;" parent="1" source="VKmf45bNIdNvS3ac2Pd--68" target="VKmf45bNIdNvS3ac2Pd--7" edge="1">
          <mxGeometry relative="1" as="geometry" />
        </mxCell>
        <mxCell id="VKmf45bNIdNvS3ac2Pd--68" value="" style="shape=waypoint;sketch=0;size=6;pointerEvents=1;points=[];fillColor=default;resizable=0;rotatable=0;perimeter=centerPerimeter;snapToPoint=1;" parent="1" vertex="1">
          <mxGeometry x="-37.5" y="225" width="20" height="20" as="geometry" />
        </mxCell>
      </root>
    </mxGraphModel>
  </diagram>
  <diagram id="6sbbz-ZDVUQKtr-BbRrW" name="Halaman-2">
    <mxGraphModel dx="2261" dy="759" grid="1" gridSize="10" guides="1" tooltips="1" connect="1" arrows="1" fold="1" page="1" pageScale="1" pageWidth="827" pageHeight="1169" math="0" shadow="0">
      <root>
        <mxCell id="0" />
        <mxCell id="1" parent="0" />
        <mxCell id="oY7xWPAnO3_B6JUfDcN1-2" value="" style="edgeStyle=orthogonalEdgeStyle;rounded=0;orthogonalLoop=1;jettySize=auto;html=1;" parent="1" source="Fr9peftE_QboB4AFATSZ-1" target="oY7xWPAnO3_B6JUfDcN1-1" edge="1">
          <mxGeometry relative="1" as="geometry" />
        </mxCell>
        <mxCell id="Fr9peftE_QboB4AFATSZ-1" value="Mulai" style="rounded=1;whiteSpace=wrap;html=1;arcSize=50;" parent="1" vertex="1">
          <mxGeometry x="354" y="30" width="120" height="60" as="geometry" />
        </mxCell>
        <mxCell id="oY7xWPAnO3_B6JUfDcN1-4" value="" style="edgeStyle=orthogonalEdgeStyle;rounded=0;orthogonalLoop=1;jettySize=auto;html=1;" parent="1" source="oY7xWPAnO3_B6JUfDcN1-1" target="oY7xWPAnO3_B6JUfDcN1-3" edge="1">
          <mxGeometry relative="1" as="geometry" />
        </mxCell>
        <mxCell id="oY7xWPAnO3_B6JUfDcN1-1" value="Login" style="shape=parallelogram;perimeter=parallelogramPerimeter;whiteSpace=wrap;html=1;fixedSize=1;" parent="1" vertex="1">
          <mxGeometry x="354" y="130" width="120" height="60" as="geometry" />
        </mxCell>
        <mxCell id="oY7xWPAnO3_B6JUfDcN1-6" value="" style="edgeStyle=orthogonalEdgeStyle;rounded=0;orthogonalLoop=1;jettySize=auto;html=1;" parent="1" source="oY7xWPAnO3_B6JUfDcN1-3" target="oY7xWPAnO3_B6JUfDcN1-5" edge="1">
          <mxGeometry relative="1" as="geometry" />
        </mxCell>
        <mxCell id="oY7xWPAnO3_B6JUfDcN1-11" value="" style="edgeStyle=orthogonalEdgeStyle;rounded=0;orthogonalLoop=1;jettySize=auto;html=1;" parent="1" source="oY7xWPAnO3_B6JUfDcN1-3" target="oY7xWPAnO3_B6JUfDcN1-10" edge="1">
          <mxGeometry relative="1" as="geometry" />
        </mxCell>
        <mxCell id="oY7xWPAnO3_B6JUfDcN1-3" value="Username&lt;br&gt;&amp;amp; Passowrd" style="rhombus;whiteSpace=wrap;html=1;" parent="1" vertex="1">
          <mxGeometry x="356" y="230" width="116" height="100" as="geometry" />
        </mxCell>
        <mxCell id="oY7xWPAnO3_B6JUfDcN1-8" value="" style="edgeStyle=orthogonalEdgeStyle;rounded=0;orthogonalLoop=1;jettySize=auto;html=1;entryX=1;entryY=0.5;entryDx=0;entryDy=0;" parent="1" source="oY7xWPAnO3_B6JUfDcN1-5" target="oY7xWPAnO3_B6JUfDcN1-1" edge="1">
          <mxGeometry relative="1" as="geometry">
            <mxPoint x="472" y="160" as="targetPoint" />
          </mxGeometry>
        </mxCell>
        <mxCell id="oY7xWPAnO3_B6JUfDcN1-5" value="" style="shape=waypoint;sketch=0;size=6;pointerEvents=1;points=[];fillColor=default;resizable=0;rotatable=0;perimeter=centerPerimeter;snapToPoint=1;" parent="1" vertex="1">
          <mxGeometry x="600" y="150" width="20" height="20" as="geometry" />
        </mxCell>
        <mxCell id="L4Cw3_PjO1-YEqvZDOMg-6" value="" style="edgeStyle=orthogonalEdgeStyle;rounded=0;orthogonalLoop=1;jettySize=auto;html=1;" edge="1" parent="1" source="oY7xWPAnO3_B6JUfDcN1-10" target="L4Cw3_PjO1-YEqvZDOMg-5">
          <mxGeometry relative="1" as="geometry" />
        </mxCell>
        <mxCell id="oY7xWPAnO3_B6JUfDcN1-10" value="Tampilkan Halaman&lt;br&gt;Utama" style="shape=parallelogram;perimeter=parallelogramPerimeter;whiteSpace=wrap;html=1;fixedSize=1;" parent="1" vertex="1">
          <mxGeometry x="338" y="370" width="152" height="50" as="geometry" />
        </mxCell>
        <mxCell id="oY7xWPAnO3_B6JUfDcN1-12" value="True" style="text;html=1;align=center;verticalAlign=middle;resizable=0;points=[];autosize=1;strokeColor=none;fillColor=none;" parent="1" vertex="1">
          <mxGeometry x="405" y="330" width="50" height="30" as="geometry" />
        </mxCell>
        <mxCell id="oY7xWPAnO3_B6JUfDcN1-13" value="False" style="text;html=1;align=center;verticalAlign=middle;resizable=0;points=[];autosize=1;strokeColor=none;fillColor=none;" parent="1" vertex="1">
          <mxGeometry x="516" y="255" width="50" height="30" as="geometry" />
        </mxCell>
        <mxCell id="m0rp0gqbC368ws11pKlm-2" value="" style="edgeStyle=orthogonalEdgeStyle;rounded=0;orthogonalLoop=1;jettySize=auto;html=1;" edge="1" parent="1" source="L4Cw3_PjO1-YEqvZDOMg-5" target="m0rp0gqbC368ws11pKlm-1">
          <mxGeometry relative="1" as="geometry" />
        </mxCell>
        <mxCell id="L4Cw3_PjO1-YEqvZDOMg-5" value="Import Data&amp;nbsp;" style="whiteSpace=wrap;html=1;" vertex="1" parent="1">
          <mxGeometry x="354" y="460" width="120" height="60" as="geometry" />
        </mxCell>
        <mxCell id="m0rp0gqbC368ws11pKlm-4" value="" style="edgeStyle=orthogonalEdgeStyle;rounded=0;orthogonalLoop=1;jettySize=auto;html=1;" edge="1" parent="1" source="m0rp0gqbC368ws11pKlm-1" target="m0rp0gqbC368ws11pKlm-3">
          <mxGeometry relative="1" as="geometry" />
        </mxCell>
        <mxCell id="m0rp0gqbC368ws11pKlm-1" value="Database" style="whiteSpace=wrap;html=1;" vertex="1" parent="1">
          <mxGeometry x="354" y="560" width="120" height="60" as="geometry" />
        </mxCell>
        <mxCell id="FFWBEOcaCDitshKTHYZs-2" value="" style="edgeStyle=orthogonalEdgeStyle;rounded=0;orthogonalLoop=1;jettySize=auto;html=1;" edge="1" parent="1" source="m0rp0gqbC368ws11pKlm-3" target="FFWBEOcaCDitshKTHYZs-1">
          <mxGeometry relative="1" as="geometry" />
        </mxCell>
        <mxCell id="FFWBEOcaCDitshKTHYZs-4" value="" style="edgeStyle=orthogonalEdgeStyle;rounded=0;orthogonalLoop=1;jettySize=auto;html=1;" edge="1" parent="1" source="m0rp0gqbC368ws11pKlm-3" target="FFWBEOcaCDitshKTHYZs-3">
          <mxGeometry relative="1" as="geometry" />
        </mxCell>
        <mxCell id="qknnglwHri8zZTyC8S19-7" value="" style="edgeStyle=orthogonalEdgeStyle;rounded=0;orthogonalLoop=1;jettySize=auto;html=1;" edge="1" parent="1" source="m0rp0gqbC368ws11pKlm-3" target="qknnglwHri8zZTyC8S19-6">
          <mxGeometry relative="1" as="geometry" />
        </mxCell>
        <mxCell id="m0rp0gqbC368ws11pKlm-3" value="Input Pilih&amp;nbsp;" style="shape=parallelogram;perimeter=parallelogramPerimeter;whiteSpace=wrap;html=1;fixedSize=1;" vertex="1" parent="1">
          <mxGeometry x="354" y="660" width="120" height="60" as="geometry" />
        </mxCell>
        <mxCell id="16T_RrcNawwSw8Cz-yGy-4" value="" style="edgeStyle=orthogonalEdgeStyle;rounded=0;orthogonalLoop=1;jettySize=auto;html=1;" edge="1" parent="1" source="FFWBEOcaCDitshKTHYZs-1" target="16T_RrcNawwSw8Cz-yGy-3">
          <mxGeometry relative="1" as="geometry" />
        </mxCell>
        <mxCell id="qknnglwHri8zZTyC8S19-3" value="" style="edgeStyle=orthogonalEdgeStyle;rounded=0;orthogonalLoop=1;jettySize=auto;html=1;" edge="1" parent="1" source="FFWBEOcaCDitshKTHYZs-1" target="qknnglwHri8zZTyC8S19-2">
          <mxGeometry relative="1" as="geometry" />
        </mxCell>
        <mxCell id="FFWBEOcaCDitshKTHYZs-1" value="Pilih == &lt;br&gt;Dekripsi" style="rhombus;whiteSpace=wrap;html=1;" vertex="1" parent="1">
          <mxGeometry x="574" y="650" width="96" height="80" as="geometry" />
        </mxCell>
        <mxCell id="16T_RrcNawwSw8Cz-yGy-2" value="" style="edgeStyle=orthogonalEdgeStyle;rounded=0;orthogonalLoop=1;jettySize=auto;html=1;" edge="1" parent="1" source="FFWBEOcaCDitshKTHYZs-3" target="16T_RrcNawwSw8Cz-yGy-1">
          <mxGeometry relative="1" as="geometry" />
        </mxCell>
        <mxCell id="qknnglwHri8zZTyC8S19-1" value="" style="edgeStyle=orthogonalEdgeStyle;rounded=0;orthogonalLoop=1;jettySize=auto;html=1;" edge="1" parent="1" source="FFWBEOcaCDitshKTHYZs-3" target="Z48aVZU1pXvZ1rPLrobq-1">
          <mxGeometry relative="1" as="geometry" />
        </mxCell>
        <mxCell id="FFWBEOcaCDitshKTHYZs-3" value="Pilih ==&lt;br&gt;Enkripsi" style="rhombus;whiteSpace=wrap;html=1;" vertex="1" parent="1">
          <mxGeometry x="160" y="650" width="94" height="80" as="geometry" />
        </mxCell>
        <mxCell id="16T_RrcNawwSw8Cz-yGy-6" value="" style="edgeStyle=orthogonalEdgeStyle;rounded=0;orthogonalLoop=1;jettySize=auto;html=1;" edge="1" parent="1" source="16T_RrcNawwSw8Cz-yGy-1" target="16T_RrcNawwSw8Cz-yGy-5">
          <mxGeometry relative="1" as="geometry" />
        </mxCell>
        <mxCell id="16T_RrcNawwSw8Cz-yGy-1" value="Default Condition ==&lt;br&gt;Halaman Import&amp;nbsp;" style="whiteSpace=wrap;html=1;" vertex="1" parent="1">
          <mxGeometry x="-27" y="660" width="120" height="60" as="geometry" />
        </mxCell>
        <mxCell id="16T_RrcNawwSw8Cz-yGy-9" value="" style="edgeStyle=orthogonalEdgeStyle;rounded=0;orthogonalLoop=1;jettySize=auto;html=1;" edge="1" parent="1" source="16T_RrcNawwSw8Cz-yGy-3" target="16T_RrcNawwSw8Cz-yGy-8">
          <mxGeometry relative="1" as="geometry" />
        </mxCell>
        <mxCell id="16T_RrcNawwSw8Cz-yGy-3" value="Default Condition ==&lt;br&gt;Halaman Import" style="whiteSpace=wrap;html=1;" vertex="1" parent="1">
          <mxGeometry x="738" y="660" width="120" height="60" as="geometry" />
        </mxCell>
        <mxCell id="16T_RrcNawwSw8Cz-yGy-7" style="edgeStyle=orthogonalEdgeStyle;rounded=0;orthogonalLoop=1;jettySize=auto;html=1;entryX=0;entryY=0.5;entryDx=0;entryDy=0;" edge="1" parent="1" source="16T_RrcNawwSw8Cz-yGy-5" target="oY7xWPAnO3_B6JUfDcN1-10">
          <mxGeometry relative="1" as="geometry" />
        </mxCell>
        <mxCell id="16T_RrcNawwSw8Cz-yGy-5" value="" style="shape=waypoint;sketch=0;size=6;pointerEvents=1;points=[];fillColor=default;resizable=0;rotatable=0;perimeter=centerPerimeter;snapToPoint=1;" vertex="1" parent="1">
          <mxGeometry x="23" y="385" width="20" height="20" as="geometry" />
        </mxCell>
        <mxCell id="16T_RrcNawwSw8Cz-yGy-11" style="edgeStyle=orthogonalEdgeStyle;rounded=0;orthogonalLoop=1;jettySize=auto;html=1;entryX=1;entryY=0.5;entryDx=0;entryDy=0;" edge="1" parent="1" source="16T_RrcNawwSw8Cz-yGy-8" target="oY7xWPAnO3_B6JUfDcN1-10">
          <mxGeometry relative="1" as="geometry" />
        </mxCell>
        <mxCell id="16T_RrcNawwSw8Cz-yGy-8" value="" style="shape=waypoint;sketch=0;size=6;pointerEvents=1;points=[];fillColor=default;resizable=0;rotatable=0;perimeter=centerPerimeter;snapToPoint=1;" vertex="1" parent="1">
          <mxGeometry x="788" y="385" width="20" height="20" as="geometry" />
        </mxCell>
        <mxCell id="16T_RrcNawwSw8Cz-yGy-12" value="False" style="text;html=1;align=center;verticalAlign=middle;resizable=0;points=[];autosize=1;strokeColor=none;fillColor=none;" vertex="1" parent="1">
          <mxGeometry x="102" y="666" width="50" height="30" as="geometry" />
        </mxCell>
        <mxCell id="16T_RrcNawwSw8Cz-yGy-13" value="False" style="text;html=1;align=center;verticalAlign=middle;resizable=0;points=[];autosize=1;strokeColor=none;fillColor=none;" vertex="1" parent="1">
          <mxGeometry x="671" y="667" width="50" height="30" as="geometry" />
        </mxCell>
        <mxCell id="qknnglwHri8zZTyC8S19-11" value="" style="edgeStyle=orthogonalEdgeStyle;rounded=0;orthogonalLoop=1;jettySize=auto;html=1;" edge="1" parent="1" source="Z48aVZU1pXvZ1rPLrobq-1" target="qknnglwHri8zZTyC8S19-10">
          <mxGeometry relative="1" as="geometry" />
        </mxCell>
        <mxCell id="Z48aVZU1pXvZ1rPLrobq-1" value="Proses Enkripsi" style="shape=process;whiteSpace=wrap;html=1;backgroundOutline=1;" vertex="1" parent="1">
          <mxGeometry x="147" y="780" width="120" height="60" as="geometry" />
        </mxCell>
        <mxCell id="qknnglwHri8zZTyC8S19-13" value="" style="edgeStyle=orthogonalEdgeStyle;rounded=0;orthogonalLoop=1;jettySize=auto;html=1;" edge="1" parent="1" source="qknnglwHri8zZTyC8S19-2" target="qknnglwHri8zZTyC8S19-12">
          <mxGeometry relative="1" as="geometry" />
        </mxCell>
        <mxCell id="qknnglwHri8zZTyC8S19-2" value="Proses Dekripsi" style="shape=process;whiteSpace=wrap;html=1;backgroundOutline=1;" vertex="1" parent="1">
          <mxGeometry x="562" y="780" width="120" height="60" as="geometry" />
        </mxCell>
        <mxCell id="qknnglwHri8zZTyC8S19-9" value="" style="edgeStyle=orthogonalEdgeStyle;rounded=0;orthogonalLoop=1;jettySize=auto;html=1;" edge="1" parent="1" source="qknnglwHri8zZTyC8S19-6" target="qknnglwHri8zZTyC8S19-8">
          <mxGeometry relative="1" as="geometry" />
        </mxCell>
        <mxCell id="qknnglwHri8zZTyC8S19-6" value="Database" style="shape=parallelogram;perimeter=parallelogramPerimeter;whiteSpace=wrap;html=1;fixedSize=1;" vertex="1" parent="1">
          <mxGeometry x="354" y="780" width="120" height="60" as="geometry" />
        </mxCell>
        <mxCell id="qknnglwHri8zZTyC8S19-8" value="Selesai" style="rounded=1;whiteSpace=wrap;html=1;arcSize=50;" vertex="1" parent="1">
          <mxGeometry x="354" y="900" width="120" height="60" as="geometry" />
        </mxCell>
        <mxCell id="qknnglwHri8zZTyC8S19-10" value="Tampilkan&amp;nbsp;&lt;br&gt;Hasil" style="shape=parallelogram;perimeter=parallelogramPerimeter;whiteSpace=wrap;html=1;fixedSize=1;" vertex="1" parent="1">
          <mxGeometry x="147" y="870" width="120" height="60" as="geometry" />
        </mxCell>
        <mxCell id="qknnglwHri8zZTyC8S19-12" value="Tampilkan&lt;br&gt;Hasil" style="shape=parallelogram;perimeter=parallelogramPerimeter;whiteSpace=wrap;html=1;fixedSize=1;" vertex="1" parent="1">
          <mxGeometry x="562" y="870" width="120" height="60" as="geometry" />
        </mxCell>
      </root>
    </mxGraphModel>
  </diagram>
</mxfile>
